<svg id="Ebene_1" data-name="Ebene 1" xmlns="http://www.w3.org/2000/svg" viewBox="0 0 347 333"><path d="M160.16,208.78c-12.49,0-25-.09-37.48,0-8.27.08-10.64,1.76-12.89,9.72-7.24,25.65-14.29,51.35-21.42,77-.36,1.28-.82,2.53-1.21,3.81-1.52,4.95-4.9,7.29-10,7.32-14.32.1-28.65.31-43,.35-7.33,0-14.66-.08-22-.37-5.75-.22-7.27-1.92-6.24-7.56,2.76-15.25,7.39-30.06,11.45-45q25.82-94.71,52-189.35c.83-3.05,1.76-6.08,2.76-9.07C75,47,76.94,45.53,86.25,45.47c17-.1,34,0,51,0,3,0,6-.08,9,.07,8.32.42,9.56,1.78,7.51,9.76-4.48,17.42-9.29,34.75-14,52.13-2.42,9-4.95,18-7.13,27-1.44,6,.16,8.11,6.4,8.27q39,1,77.95,0c7.33-.19,9.56-2.07,11.77-9.93C235,110.65,240.9,88.45,247,66.29c1.37-5,2.95-9.88,4.54-14.78,1.23-3.78,4-5.59,7.92-5.7q33-1,66-.06c6.71.18,8.19,1.89,6.51,8.47q-7.64,30-16,59.84c-15.89,56.95-30.7,114.18-45.72,171.36-1.31,5-3,9.88-4.66,14.76-1.46,4.25-4.66,6.4-9.11,6.51-22,.55-44,.59-66,0-5.79-.16-7.1-2.2-5.41-8.84,5-19.84,10.34-39.62,15.49-59.45,1.84-7.09,3.73-14.18,5.19-21.35,1.24-6.12-.31-8-6.63-8.11-13-.19-26-.06-39-.06Z"/></svg>