<svg id="Ebene_1" data-name="Ebene 1" xmlns="http://www.w3.org/2000/svg" viewBox="0 0 1507 277"><path d="M406,268.73c-26.66,0-53.33.07-80,0-9.17,0-11.14-2.38-9.11-11.24,6.33-27.78,14.42-55.11,21.76-82.64Q358.79,99.24,379,23.7c.43-1.61.84-3.23,1.37-4.81,2.9-8.68,5.39-10.86,14.44-10.82,44.66.21,89.34-1.36,134,.94,25.55,1.33,48.74,9.17,67.23,27.83,17.71,17.87,24,40.06,22.77,64.49-2,40.55-13.7,78.26-35.46,112.64-20.52,32.43-51,48-88.44,52-27.92,3-55.92,2.11-83.9,2.5-1.67,0-3.33,0-5,0Zm28.78-60.94,0,.6c7-.47,14-.85,20.92-1.43,22.7-1.9,42.26-9.84,54.5-30.27,13.24-22.1,21-46,21-72,0-16.51-7.75-27-23.66-31.69-16.66-4.93-33.81-5-51-4.45-5.71.19-8,3.69-9.46,8.59-7.57,25.36-14.38,50.93-21,76.56-4,15.62-8.44,31.16-11.36,47-1,5.21.29,6.72,5.58,7C425.12,208,430,207.79,434.77,207.79Z"/><path d="M1046.17,170.78h-34c-11.11,0-12.88.94-15.95,11.75-6.32,22.26-12.17,44.67-18.28,67-1.19,4.33-2.62,8.6-4.06,12.85s-4.39,6.17-8.68,6.28c-22.15.55-44.31.72-66.45,0-5.36-.19-6.77-2.29-5.64-8.1,2.9-14.9,7.44-29.38,11.35-44q25.18-94.12,50.45-188.21c1.08-4,2.23-8,3.58-12,2.87-8.39,4.63-9.65,13.4-9.68q22.76-.08,45.49,0c5.66,0,11.34-.12,17,.17,6.13.31,7.41,2,5.89,8-6.22,24.53-12.62,49-18.92,73.52q-1.29,5.09-2.18,10.26c-.55,3.14.84,5.27,4.07,5.69a72.71,72.71,0,0,0,9.44.68q33.48.09,67,0c11.66,0,13.85-1.64,16.93-12.75,6.85-24.72,13.47-49.51,20.32-74.23,2.86-10.33,4.35-11.29,15.07-11.3q28.48,0,57,0c10.89,0,12.27,1.55,9.48,12-8.37,31.36-17,62.66-25.39,94-12.44,46.67-24.66,93.4-37.13,140.06-4.18,15.66-5.15,16.23-21.26,16.22q-27.24,0-54.48-.21c-8.43,0-9.94-1.76-7.87-9.89,6.25-24.52,12.73-49,19-73.49,3.38-13.07,2.19-14.56-11.21-14.56Z"/><path d="M160.16,170.78c-12.49,0-25-.09-37.48,0-8.27.08-10.64,1.76-12.89,9.72-7.24,25.65-14.29,51.35-21.42,77-.36,1.28-.82,2.53-1.21,3.81-1.52,4.95-4.9,7.29-10,7.32-14.32.1-28.65.31-43,.35-7.33,0-14.66-.08-22-.37-5.75-.22-7.27-1.92-6.24-7.56,2.76-15.25,7.39-30.06,11.45-45q25.82-94.71,52-189.35c.83-3.05,1.76-6.08,2.76-9.07C75,9,76.94,7.53,86.25,7.47c17-.1,34,0,51,0,3,0,6-.08,9,.07,8.32.42,9.56,1.78,7.51,9.76-4.48,17.42-9.29,34.75-14,52.13-2.42,9-4.95,18-7.13,27.05-1.44,6,.16,8.11,6.4,8.27q39,1,77.95,0c7.33-.19,9.56-2.07,11.77-9.93C235,72.65,240.9,50.45,247,28.29c1.37-5,2.95-9.88,4.54-14.78,1.23-3.78,4-5.59,7.92-5.7q33-1,66-.06c6.71.18,8.19,1.89,6.51,8.47q-7.64,30-16,59.84c-15.89,56.95-30.7,114.18-45.72,171.36-1.31,5-3,9.88-4.66,14.76-1.46,4.25-4.66,6.4-9.11,6.51-22,.55-44,.59-66,0-5.79-.16-7.1-2.2-5.41-8.84,5-19.84,10.34-39.62,15.49-59.45,1.84-7.09,3.73-14.18,5.19-21.35,1.24-6.12-.31-8-6.63-8.11-13-.19-26-.06-39-.06Z"/><path d="M706.74,269.58c-27.31-1.35-54.62-2.16-81.85-4.43-10.55-.88-11.08-1.87-8.32-12.15,3.19-11.91,6.56-23.76,9.94-35.61,2-6.91,3.91-8.3,11.15-7.9,19.12,1.06,38.24,2.43,57.37,3.28,19.79.88,39.6,2.49,59.41.33a74.83,74.83,0,0,0,11.74-2.34A22.89,22.89,0,0,0,781.37,198a46.52,46.52,0,0,0,4.75-19.75c.08-9.34-2.3-12.5-11.49-14.63-7.32-1.7-14.83-2.11-22.3-2.61-20.6-1.39-41.31-1.88-61.5-6.86a80.51,80.51,0,0,1-8.62-2.57c-20.16-7.45-30-22-28.86-43.47A148.42,148.42,0,0,1,673.6,40.81c9.33-16.16,24.43-24,42-27.85,22.27-4.86,45-5.51,67.6-5.81,36.67-.5,73.29,1.24,109.84,4.06,11.3.87,11.77,1.82,9.16,13a366,366,0,0,1-9.84,35.62c-2.29,6.68-3.81,7.75-11,7.41-20.8-1-41.58-2.36-62.39-3.07-17.47-.58-35-1.05-52.43.76-11.19,1.16-19,6.26-22.65,17.3-1.62,4.91-3.27,9.79-3.82,15-1,9.64,2.14,13.93,11.8,15.62a275.4,275.4,0,0,0,33.31,3.28c18,.94,35.93,2,53.73,4.81a71.17,71.17,0,0,1,10.18,2.45c17.83,5.59,25.83,15.43,25.42,34.18-.63,28.34-8.69,54.83-23.27,79.17-9.66,16.14-25.11,23.8-42.86,27.53-21.32,4.47-43,5.05-64.65,5.34C731.4,269.72,719.07,269.58,706.74,269.58Z"/><path d="M1383.29,7.42c29,.35,64.6-.55,100.25.51,15,.45,16.26,2,12.68,16.3-3.8,15.19-7.59,30.38-11.49,45.55-2,7.77-4,9.19-11.85,9.29q-27.48.34-55,.69c-12.07.14-13.26,1-16.76,12.67-16.15,54.1-30.66,108.66-45,163.27-.47,1.76-1.11,3.48-1.64,5.24-1.59,5.36-5.17,7.78-10.75,7.77-19.33,0-38.65.06-58,.09-3.67,0-7.34.07-11-.13-5.87-.32-7.62-2.3-6.2-8,3.48-14.06,7.24-28,11-42q17.19-63.17,34.5-126.28c.08-.32.19-.64.28-1,2.58-10,1.48-11.51-8.72-11.62l-61-.68c-8.28-.09-9.3-1.2-7.54-9,4-17.55,8.5-35,13.27-52.31,1.41-5.1,4.57-7.89,9.69-8.8,8.74-1.57,17.6-1.42,26.41-1.47C1316.61,7.31,1346.6,7.42,1383.29,7.42Z"/></svg>