<svg width="925" height="115" viewBox="0 0 925 115" fill="none" xmlns="http://www.w3.org/2000/svg">
<path d="M177.565 5.06069e-05V114.095H129.69V73.2298H47.6604V114.095H0.605469V5.06069e-05H47.6604V46.6822H129.69V5.06069e-05H177.565Z" fill="#FFF"/>
<path d="M756.44 0V114.095H708.565V73.2297H626.535V114.095H579.48V0H626.535V46.6821H708.565V0H756.44Z" fill="#FFF"/>
<path d="M326.945 28.412H195.25L195.474 5.06069e-05H340.964C349.615 5.06069e-05 357.072 2.90835 363.261 8.79954C369.525 14.6162 372.583 21.7751 372.583 30.0526V84.1173C372.583 92.4694 369.451 99.5537 363.261 105.37C357.072 111.187 349.615 114.095 340.964 114.095H195.399L195.176 46.6822H240.739L240.888 85.7579H326.87V28.412" fill="#FFF"/>
<path d="M563.275 28.1997H432.555V42.8253L516.371 42.5141V42.5059H561.979C562.531 42.5059 562.979 42.9536 562.979 43.5059V68.001L563 68.0001V86.0001C563 94.2787 559.844 99.7045 553.581 105.52C549.759 109.16 545.448 111.662 540.676 113.042C537.723 113.895 534.588 114.32 531.285 114.32H459.772L460.033 114.17H385.793L385.572 86.0001H516.074V70.0977L412.971 70.0978C397.944 70.0978 385.706 58.0253 385.5 43L385.574 26.8477H385.712C386.369 19.8843 389.374 13.7968 394.824 8.73446C398.617 5.12186 402.895 2.6383 407.63 1.2693C410.561 0.42217 413.672 5.06943e-05 416.95 5.06943e-05H563.056L563.275 28.1997Z" fill="#FFF"/>
<path d="M769.891 0V28.3374H823.582V114.095H870.562V73.2297L870.413 62.0439L870.562 46.6821V28.3374H925V0H769.891Z" fill="#FFF"/>
</svg>
