<svg id="Ebene_1" data-name="Ebene 1" xmlns="http://www.w3.org/2000/svg" viewBox="0 0 21.67 21.62"><path d="M7.58,13.1c.67,0,1.33,0,2,0,.23,0,.32.07.31.31a8,8,0,0,0,0,1c0,.25-.08.33-.33.32H6.44C4.66,14.7,4,15.22,3.67,17c0,.19,0,.48-.21.52s-.29-.23-.4-.38a9.82,9.82,0,1,1,15.54.09c-.07.1-.13.27-.28.25s-.16-.22-.2-.36-.12-.46-.19-.69a2.1,2.1,0,0,0-2.25-1.68c-1.13,0-2.27,0-3.41,0-.31,0-.44-.08-.41-.41a3.22,3.22,0,0,0,0-.76c0-.34.07-.46.44-.45,1.29,0,2.58,0,3.88,0,.27,0,.39,0,.38-.35s0-.46-.37-.44c-.68,0-1.36,0-2,0-.14,0-.32,0-.33-.21s.17-.21.32-.21c.95,0,1.89,0,2.83,0,.37,0,.37-.18.37-.45s0-.41-.36-.4c-.9,0-1.79,0-2.69,0-.2,0-.36,0-.35-.28s.17-.24.34-.24c.49,0,1,0,1.49,0,.31,0,.31-.16.31-.39s0-.44-.31-.43c-.51,0-1,0-1.53,0-.15,0-.29,0-.3-.22s.12-.26.3-.26c.48,0,1,0,1.45,0,.3,0,.41-.07.4-.38s-.07-.41-.38-.4c-.52,0-1,0-1.56,0-.26,0-.35-.07-.34-.33,0-.61,0-1.23,0-1.85,0-.4-.25-.32-.48-.34S13,6,13,6.31c0,.59,0,1.18,0,1.77,0,.37-.14.41-.44.42s-.45-.1-.43-.44c0-.54,0-1.08,0-1.63s-.31-.27-.51-.3-.38,0-.37.3c0,.58,0,1.16,0,1.73,0,.35-.2.32-.42.33s-.4,0-.39-.32c0-.57,0-1.14,0-1.7,0-.25-.07-.35-.33-.35-.58,0-.58,0-.58.56s0,1,0,1.52c0,.34-.22.28-.41.29s-.39,0-.39-.29c0-.62,0-1.25,0-1.88,0-.27-.08-.38-.35-.35H8.15c-.25,0-.34.07-.34.32,0,.61,0,1.21,0,1.82,0,.31-.1.39-.39.37-.47,0-.94,0-1.41,0s-.33.17-.34.41,0,.39.32.37c.47,0,1,0,1.42,0,.18,0,.41-.07.41.26s-.23.21-.39.21c-.5,0-1,0-1.49,0s-.36.16-.37.42.06.42.38.41c.52,0,1,0,1.56,0,.18,0,.31,0,.31.24s-.12.28-.32.28c-.9,0-1.79,0-2.69,0-.37,0-.36.19-.37.45s.07.4.38.39h2.8c.14,0,.31,0,.32.19s-.15.23-.32.23c-.66,0-1.33,0-2,0-.29,0-.43,0-.44.39s.15.41.46.4Z"/></svg>